/vscmnt/brussel_pixiu_data/_data_brussel/112/vsc11236/PredSimResults/SUBJ04mtu3D/worker5.mot
version=1
nRows=4
nColumns=50
inDegrees=yes
endheader
                time	         pelvis_tilt	         pelvis_list	     pelvis_rotation	           pelvis_tx	           pelvis_ty	           pelvis_tz	       hip_flexion_r	     hip_adduction_r	      hip_rotation_r	        knee_angle_r	       ankle_angle_r	         mtp_angle_r	       hip_flexion_l	     hip_adduction_l	      hip_rotation_l	        knee_angle_l	       ankle_angle_l	         mtp_angle_l	    lumbar_extension	      lumbar_bending	     lumbar_rotation	 ercspn_r/activation	 intobl_r/activation	 extobl_r/activation	    abd_r/activation	    add_r/activation	hamstrings_r/activation	bifemsh_r/activation	glut_max_r/activation	iliopsoas_r/activation	rect_fem_r/activation	  vasti_r/activation	gastroc_r/activation	 soleus_r/activation	tib_ant_r/activation	 ercspn_l/activation	 intobl_l/activation	 extobl_l/activation	    abd_l/activation	    add_l/activation	hamstrings_l/activation	bifemsh_l/activation	glut_max_l/activation	iliopsoas_l/activation	rect_fem_l/activation	  vasti_l/activation	gastroc_l/activation	 soleus_l/activation	tib_ant_l/activation	
          1.31935612	         -2.74498839	          1.02831126	          7.40514180	          1.24019475	          0.88093698	         -0.01117892	         29.51278557	         -3.69249322	         -7.51555475	        -10.66905279	          5.34290551	          0.23177774	        -12.24711105	          0.16457019	         -7.67645665	         -8.33047046	         11.66022196	         22.88198573	        -13.79131218	         -3.79400483	         -6.60181413	          0.03279191	          0.22295565	          0.01813101	          0.01727801	          0.26140960	          0.06863252	          0.06352971	          0.03433726	          0.13248661	          0.01988334	          0.01197962	          0.01710997	          0.01815413	          0.30667209	          0.03283273	          0.01000003	          0.01000007	          0.04846569	          0.01000094	          0.02343092	          0.16093385	          0.01488132	          0.01000056	          0.01000020	          0.01000013	          0.31749569	          0.22972274	          0.01000001	
          1.33254968	         -2.81423389	          1.02330694	          7.17372417	          1.25607702	          0.87880622	         -0.01059577	         29.36888596	         -3.56496544	         -7.60666325	        -12.09166510	          5.06219228	          0.22412733	        -12.93375877	          0.04191757	         -8.31289188	         -8.93280967	         11.29271747	         24.30091868	        -13.29976666	         -3.19951703	         -6.70375307	          0.02688106	          0.21714185	          0.01486280	          0.03326134	          0.22144733	          0.06610397	          0.05207837	          0.06650637	          0.10860514	          0.01629928	          0.01000015	          0.01402585	          0.01488177	          0.33648734	          0.04092037	          0.01000002	          0.01000011	          0.03972947	          0.01000055	          0.01920790	          0.13192476	          0.01219890	          0.01101925	          0.01000033	          0.01000013	          0.29421811	          0.22081831	          0.01000002	
          1.34574324	         -2.87002778	          0.97019693	          6.89234969	          1.27220138	          0.87695789	         -0.00991944	         29.18977987	         -3.41098517	         -7.74647504	        -13.41576208	          4.58217299	          0.21368244	        -13.50385589	         -0.14572538	         -8.98313554	         -9.79122628	         10.82290668	         25.75568731	        -12.79139971	         -2.53175617	         -6.77975827	          0.03113939	          0.17800081	          0.01218371	          0.05614104	          0.21987764	          0.06813147	          0.04269117	          0.05755861	          0.08902845	          0.01336126	          0.06678303	          0.01149765	          0.01219927	          0.36473978	          0.05367165	          0.01000001	          0.01000004	          0.03256801	          0.01000023	          0.01574612	          0.10814465	          0.01000004	          0.01489514	          0.01000047	          0.01000007	          0.24785101	          0.20635635	          0.01000002	
          1.35893680	         -2.91302052	          0.87772112	          6.56510787	          1.28844856	          0.87556852	         -0.00913611	         28.95266636	         -3.22317113	         -7.96849561	        -14.64668637	          4.11785462	          0.19139294	        -13.89849717	         -0.40035574	         -9.68587761	        -10.99104483	         10.21572670	         27.23035995	        -12.28353345	         -1.80676987	         -6.82729458	          0.02748247	          0.14591515	          0.01000003	          0.07686050	          0.21002603	          0.06905822	          0.03499615	          0.04719237	          0.07298056	          0.01095286	          0.12299635	          0.01000019	          0.01000036	          0.39024598	          0.06422051	          0.01000001	          0.01000005	          0.02669745	          0.01000026	          0.01290957	          0.08865101	          0.01000004	          0.01221034	          0.01000026	          0.01000006	          0.20317445	          0.18789959	          0.01000001	
